<svg width="19" height="19" viewBox="0 0 19 19" fill="none" xmlns="http://www.w3.org/2000/svg">
<path d="M9.7824 0.489609C4.99582 0.489609 1.07469 4.17084 0.702332 8.84873L5.58591 10.8627C6.01234 10.5709 6.51878 10.4149 7.0374 10.4156C7.08586 10.4156 7.13376 10.4169 7.18094 10.4195L9.35298 7.27923V7.23526C9.35298 5.34569 10.8943 3.808 12.789 3.808C14.6836 3.808 16.2249 5.34569 16.2249 7.23526C16.2249 9.12476 14.6836 10.6631 12.789 10.6631C12.7627 10.6631 12.7371 10.6624 12.711 10.6618L9.61321 12.8656C9.6152 12.9065 9.61648 12.9473 9.61648 12.9875C9.61648 14.4065 8.45939 15.5607 7.0374 15.5607C5.78914 15.5607 4.74476 14.6716 4.50877 13.4949L1.01571 12.0543C2.09747 15.8691 5.61142 18.6658 9.7824 18.6658C14.8148 18.6658 18.8939 14.5965 18.8939 9.57771C18.8939 4.55841 14.8148 0.489609 9.7824 0.489609ZM6.4122 14.2793L5.29307 13.818C5.49112 14.23 5.83462 14.5748 6.29026 14.764C7.27495 15.1735 8.41043 14.7076 8.82088 13.7246C9.01959 13.2519 9.02076 12.7207 8.82415 12.2472C8.62745 11.7703 8.25573 11.3983 7.77913 11.2C7.30515 11.0037 6.79771 11.0108 6.35187 11.1787L7.50839 11.6556C8.23477 11.9576 8.57828 12.7896 8.27542 13.514C7.9732 14.2385 7.13859 14.5813 6.4122 14.2793ZM15.0786 7.23526C15.0786 5.97627 14.0512 4.95117 12.7892 4.95117C11.5265 4.95117 10.4992 5.97627 10.4992 7.23526C10.4992 8.49432 11.5265 9.51878 12.7892 9.51878C14.0512 9.51878 15.0786 8.49432 15.0786 7.23526ZM11.0729 7.23139C11.0729 6.28405 11.8432 5.51622 12.7925 5.51622C13.7425 5.51622 14.5128 6.28405 14.5128 7.23139C14.5128 8.17874 13.7425 8.94664 12.7925 8.94664C11.8432 8.94664 11.0728 8.17874 11.0728 7.23146L11.0729 7.23139Z" fill="white"/>
</svg>
