<svg fill="none" height="92" viewBox="0 0 92 92" width="92" xmlns="http://www.w3.org/2000/svg"><path d="m0 0h91.5618v91.5618h-91.5618z" fill="#34aadf"/><path d="m25.4728 44.1591s18.628-7.8457 25.0885-10.6084c2.4766-1.105 10.8753-4.6413 10.8753-4.6413s3.8764-1.547 3.5533 2.2101c-.1077 1.5472-.9691 6.9618-1.8304 12.8186-1.2922 8.288-2.692 17.3493-2.692 17.3493s-.2153 2.5417-2.0458 2.9837-4.8455-1.547-5.3838-1.9891c-.4308-.3314-8.0757-5.3043-10.8753-7.7354-.7538-.663-1.6151-1.989.1076-3.5361 3.8764-3.6467 8.5064-8.1773 11.306-11.0505 1.2922-1.3261 2.5842-4.4202-2.7996-.6631-7.6449 5.4148-15.1822 10.498-15.1822 10.498s-1.7229 1.105-4.9531.1105c-3.2304-.9944-6.9991-2.3206-6.9991-2.3206s-2.584-1.6575 1.8306-3.4257z" fill="#fff"/></svg>