<svg width="111" height="109" viewBox="0 0 111 109" fill="none" xmlns="http://www.w3.org/2000/svg">
<path fill-rule="evenodd" clip-rule="evenodd" d="M55.2068 0.532257C24.8305 0.532257 0.2742 25.334 0.2742 56.0171C0.2742 80.5438 16.0083 101.305 37.8356 108.653C40.5646 109.206 41.5642 107.459 41.5642 105.99C41.5642 104.704 41.4742 100.295 41.4742 95.7011C26.1933 99.0087 23.0112 89.0869 23.0112 89.0869C20.5554 82.6565 16.9168 81.0038 16.9168 81.0038C11.9154 77.6048 17.2811 77.6048 17.2811 77.6048C22.829 77.9723 25.7402 83.3002 25.7402 83.3002C30.6505 91.7508 38.5631 89.3631 41.7463 87.893C42.2006 84.3103 43.6567 81.8301 45.2028 80.4525C33.0152 79.1662 20.1922 74.3896 20.1922 53.077C20.1922 47.0141 22.3736 42.0538 25.8301 38.196C25.2848 36.8183 23.3744 31.1218 26.3766 23.4975C26.3766 23.4975 31.0148 22.0275 41.4731 29.1929C45.9506 27.9784 50.5683 27.3605 55.2068 27.3553C59.8451 27.3553 64.5733 27.9991 68.9394 29.1929C79.3988 22.0275 84.037 23.4975 84.037 23.4975C87.0393 31.1218 85.1277 36.8183 84.5824 38.196C88.1299 42.0538 90.2214 47.0141 90.2214 53.077C90.2214 74.3896 77.3984 79.0738 65.1197 80.4525C67.1212 82.1976 68.8483 85.5042 68.8483 90.7407C68.8483 98.1812 68.7584 104.153 68.7584 105.989C68.7584 107.459 69.7591 109.206 72.487 108.654C94.3143 101.304 110.048 80.5438 110.048 56.0171C110.138 25.334 85.492 0.532257 55.2068 0.532257Z" fill="white"/>
</svg>
